<svg xmlns="http://www.w3.org/2000/svg" viewBox="0 0 512 512">
  <circle cx="256" cy="256" r="256" fill="#ffffff"/>
  <g transform="translate(100, 80) scale(0.6)">
    <path d="M340 120 C360 80, 400 40, 420 30 C400 60, 380 90, 360 130 C350 150, 340 140, 340 120Z" fill="#1a2a44"/>
    <path d="M370 100 C390 60, 430 20, 460 10 C440 50, 410 80, 390 120 C375 145, 365 130, 370 100Z" fill="#1a2a44"/>
    <path d="M300 200 C320 160, 350 140, 400 150 C420 155, 450 170, 470 190 C440 185, 410 180, 380 190 C350 200, 340 220, 330 240 C320 260, 300 270, 270 290 C240 310, 200 330, 160 340 C130 345, 100 340, 80 320 C110 325, 140 320, 170 310 C200 295, 230 280, 260 260 C280 245, 290 225, 300 200Z" fill="#1a2a44"/>
    <path d="M330 250 C340 265, 350 285, 355 310 C360 340, 350 370, 330 395 C310 420, 280 440, 250 450 C270 430, 290 400, 300 370 C310 340, 310 310, 300 280 C295 265, 310 245, 330 250Z" fill="#1a2a44"/>
  </g>
</svg>
