<svg xmlns="http://www.w3.org/2000/svg" viewBox="0 0 1200 675" width="100%" height="100%"><rect width="1200" height="675" fill="#0A0E1A" /><g opacity="0.07"><line x1="0" y1="0" x2="0" y2="675" stroke="#ffffff" stroke-width="1" /><line x1="40" y1="0" x2="40" y2="675" stroke="#ffffff" stroke-width="1" /><line x1="80" y1="0" x2="80" y2="675" stroke="#ffffff" stroke-width="1" /><line x1="120" y1="0" x2="120" y2="675" stroke="#ffffff" stroke-width="1" /><line x1="160" y1="0" x2="160" y2="675" stroke="#ffffff" stroke-width="1" /><line x1="200" y1="0" x2="200" y2="675" stroke="#ffffff" stroke-width="1" /><line x1="240" y1="0" x2="240" y2="675" stroke="#ffffff" stroke-width="1" /><line x1="280" y1="0" x2="280" y2="675" stroke="#ffffff" stroke-width="1" /><line x1="320" y1="0" x2="320" y2="675" stroke="#ffffff" stroke-width="1" /><line x1="360" y1="0" x2="360" y2="675" stroke="#ffffff" stroke-width="1" /><line x1="400" y1="0" x2="400" y2="675" stroke="#ffffff" stroke-width="1" /><line x1="440" y1="0" x2="440" y2="675" stroke="#ffffff" stroke-width="1" /><line x1="480" y1="0" x2="480" y2="675" stroke="#ffffff" stroke-width="1" /><line x1="520" y1="0" x2="520" y2="675" stroke="#ffffff" stroke-width="1" /><line x1="560" y1="0" x2="560" y2="675" stroke="#ffffff" stroke-width="1" /><line x1="600" y1="0" x2="600" y2="675" stroke="#ffffff" stroke-width="1" /><line x1="640" y1="0" x2="640" y2="675" stroke="#ffffff" stroke-width="1" /><line x1="680" y1="0" x2="680" y2="675" stroke="#ffffff" stroke-width="1" /><line x1="720" y1="0" x2="720" y2="675" stroke="#ffffff" stroke-width="1" /><line x1="760" y1="0" x2="760" y2="675" stroke="#ffffff" stroke-width="1" /><line x1="800" y1="0" x2="800" y2="675" stroke="#ffffff" stroke-width="1" /><line x1="840" y1="0" x2="840" y2="675" stroke="#ffffff" stroke-width="1" /><line x1="880" y1="0" x2="880" y2="675" stroke="#ffffff" stroke-width="1" /><line x1="920" y1="0" x2="920" y2="675" stroke="#ffffff" stroke-width="1" /><line x1="960" y1="0" x2="960" y2="675" stroke="#ffffff" stroke-width="1" /><line x1="1000" y1="0" x2="1000" y2="675" stroke="#ffffff" stroke-width="1" /><line x1="1040" y1="0" x2="1040" y2="675" stroke="#ffffff" stroke-width="1" /><line x1="1080" y1="0" x2="1080" y2="675" stroke="#ffffff" stroke-width="1" /><line x1="1120" y1="0" x2="1120" y2="675" stroke="#ffffff" stroke-width="1" /><line x1="1160" y1="0" x2="1160" y2="675" stroke="#ffffff" stroke-width="1" /><line x1="0" y1="0" x2="1200" y2="0" stroke="#ffffff" stroke-width="1" /><line x1="0" y1="40" x2="1200" y2="40" stroke="#ffffff" stroke-width="1" /><line x1="0" y1="80" x2="1200" y2="80" stroke="#ffffff" stroke-width="1" /><line x1="0" y1="120" x2="1200" y2="120" stroke="#ffffff" stroke-width="1" /><line x1="0" y1="160" x2="1200" y2="160" stroke="#ffffff" stroke-width="1" /><line x1="0" y1="200" x2="1200" y2="200" stroke="#ffffff" stroke-width="1" /><line x1="0" y1="240" x2="1200" y2="240" stroke="#ffffff" stroke-width="1" /><line x1="0" y1="280" x2="1200" y2="280" stroke="#ffffff" stroke-width="1" /><line x1="0" y1="320" x2="1200" y2="320" stroke="#ffffff" stroke-width="1" /><line x1="0" y1="360" x2="1200" y2="360" stroke="#ffffff" stroke-width="1" /><line x1="0" y1="400" x2="1200" y2="400" stroke="#ffffff" stroke-width="1" /><line x1="0" y1="440" x2="1200" y2="440" stroke="#ffffff" stroke-width="1" /><line x1="0" y1="480" x2="1200" y2="480" stroke="#ffffff" stroke-width="1" /><line x1="0" y1="520" x2="1200" y2="520" stroke="#ffffff" stroke-width="1" /><line x1="0" y1="560" x2="1200" y2="560" stroke="#ffffff" stroke-width="1" /><line x1="0" y1="600" x2="1200" y2="600" stroke="#ffffff" stroke-width="1" /><line x1="0" y1="640" x2="1200" y2="640" stroke="#ffffff" stroke-width="1" /></g><circle cx="600" cy="337" r="350" fill="#06B6D4" opacity="0.12" filter="blur(80px)" /><circle cx="652" cy="262" r="250" fill="#06B6D4" opacity="0.08" filter="blur(60px)" /><path d="M 0 337 Q 300 252 600 337 T 1200 337" fill="none" stroke="#06B6D4" stroke-width="3" opacity="0.25" /><path d="M 0 237 Q 400 352 800 237 T 1200 237" fill="none" stroke="#22D3EE" stroke-width="2" opacity="0.18" /><g opacity="0.3" stroke="#06B6D4" stroke-width="1"><line x1="799.5461559861175" y1="230.89942681038866" x2="901.8160297597669" y2="347.53964800415537" /><line x1="799.5461559861175" y1="230.89942681038866" x2="767.9135230389724" y2="441.9240143181745" /><line x1="799.5461559861175" y1="230.89942681038866" x2="609.283266122865" y2="71.1620400129205" /><line x1="799.5461559861175" y1="230.89942681038866" x2="685.8469208057791" y2="199.61620842265887" /><line x1="901.8160297597669" y1="347.53964800415537" x2="767.9135230389724" y2="441.9240143181745" /><line x1="901.8160297597669" y1="347.53964800415537" x2="685.8469208057791" y2="199.61620842265887" /><line x1="767.9135230389724" y1="441.9240143181745" x2="728.6352082033341" y2="578.9276404433459" /><line x1="767.9135230389724" y1="441.9240143181745" x2="594.0670855605749" y2="506.89644059324627" /><line x1="767.9135230389724" y1="441.9240143181745" x2="685.8469208057791" y2="199.61620842265887" /><line x1="728.6352082033341" y1="578.9276404433459" x2="594.0670855605749" y2="506.89644059324627" /><line x1="728.6352082033341" y1="578.9276404433459" x2="469.6398609986315" y2="545.6198316544808" /><line x1="594.0670855605749" y1="506.89644059324627" x2="469.6398609986315" y2="545.6198316544808" /><line x1="469.6398609986315" y1="545.6198316544808" x2="315.69087509942557" y2="488.16984321705684" /><line x1="469.6398609986315" y1="545.6198316544808" x2="382.1327997098372" y2="329.39190971885455" /><line x1="315.69087509942557" y1="488.16984321705684" x2="382.1327997098372" y2="329.39190971885455" /><line x1="382.1327997098372" y1="329.39190971885455" x2="350.6738597300108" y2="181.20373631543762" /><line x1="382.1327997098372" y1="329.39190971885455" x2="510.8004030706807" y2="169.2399573568039" /><line x1="350.6738597300108" y1="181.20373631543762" x2="510.8004030706807" y2="169.2399573568039" /><line x1="510.8004030706807" y1="169.2399573568039" x2="609.283266122865" y2="71.1620400129205" /><line x1="510.8004030706807" y1="169.2399573568039" x2="685.8469208057791" y2="199.61620842265887" /><line x1="609.283266122865" y1="71.1620400129205" x2="685.8469208057791" y2="199.61620842265887" /></g><circle cx="799.5461559861175" cy="230.89942681038866" r="8" fill="#0A0E1A" stroke="#06B6D4" stroke-width="2" /><circle cx="799.5461559861175" cy="230.89942681038866" r="6" fill="#06B6D4" /><circle cx="799.5461559861175" cy="230.89942681038866" r="14" fill="none" stroke="#06B6D4" stroke-width="0.5" opacity="0.5" /><circle cx="901.8160297597669" cy="347.53964800415537" r="4" fill="#0A0E1A" stroke="#06B6D4" stroke-width="2" /><circle cx="767.9135230389724" cy="441.9240143181745" r="8" fill="#0A0E1A" stroke="#06B6D4" stroke-width="2" /><circle cx="728.6352082033341" cy="578.9276404433459" r="4" fill="#0A0E1A" stroke="#06B6D4" stroke-width="2" /><circle cx="728.6352082033341" cy="578.9276404433459" r="2" fill="#06B6D4" /><circle cx="728.6352082033341" cy="578.9276404433459" r="10" fill="none" stroke="#06B6D4" stroke-width="0.5" opacity="0.5" /><circle cx="594.0670855605749" cy="506.89644059324627" r="8" fill="#0A0E1A" stroke="#06B6D4" stroke-width="2" /><circle cx="469.6398609986315" cy="545.6198316544808" r="4" fill="#0A0E1A" stroke="#06B6D4" stroke-width="2" /><circle cx="315.69087509942557" cy="488.16984321705684" r="8" fill="#0A0E1A" stroke="#06B6D4" stroke-width="2" /><circle cx="315.69087509942557" cy="488.16984321705684" r="6" fill="#06B6D4" /><circle cx="315.69087509942557" cy="488.16984321705684" r="14" fill="none" stroke="#06B6D4" stroke-width="0.5" opacity="0.5" /><circle cx="382.1327997098372" cy="329.39190971885455" r="4" fill="#0A0E1A" stroke="#06B6D4" stroke-width="2" /><circle cx="350.6738597300108" cy="181.20373631543762" r="8" fill="#0A0E1A" stroke="#06B6D4" stroke-width="2" /><circle cx="510.8004030706807" cy="169.2399573568039" r="4" fill="#0A0E1A" stroke="#06B6D4" stroke-width="2" /><circle cx="510.8004030706807" cy="169.2399573568039" r="2" fill="#06B6D4" /><circle cx="510.8004030706807" cy="169.2399573568039" r="10" fill="none" stroke="#06B6D4" stroke-width="0.5" opacity="0.5" /><circle cx="609.283266122865" cy="71.1620400129205" r="8" fill="#0A0E1A" stroke="#06B6D4" stroke-width="2" /><circle cx="685.8469208057791" cy="199.61620842265887" r="4" fill="#0A0E1A" stroke="#06B6D4" stroke-width="2" /><circle cx="600" cy="337" r="15" fill="#06B6D4" opacity="0.8" /><circle cx="600" cy="337" r="25" fill="none" stroke="#06B6D4" stroke-width="1.5" opacity="0.5" /></svg>