<svg xmlns="http://www.w3.org/2000/svg" viewBox="0 0 1200 675" width="100%" height="100%"><rect width="1200" height="675" fill="#0A0E1A" /><g opacity="0.07"><line x1="0" y1="0" x2="0" y2="675" stroke="#ffffff" stroke-width="1" /><line x1="40" y1="0" x2="40" y2="675" stroke="#ffffff" stroke-width="1" /><line x1="80" y1="0" x2="80" y2="675" stroke="#ffffff" stroke-width="1" /><line x1="120" y1="0" x2="120" y2="675" stroke="#ffffff" stroke-width="1" /><line x1="160" y1="0" x2="160" y2="675" stroke="#ffffff" stroke-width="1" /><line x1="200" y1="0" x2="200" y2="675" stroke="#ffffff" stroke-width="1" /><line x1="240" y1="0" x2="240" y2="675" stroke="#ffffff" stroke-width="1" /><line x1="280" y1="0" x2="280" y2="675" stroke="#ffffff" stroke-width="1" /><line x1="320" y1="0" x2="320" y2="675" stroke="#ffffff" stroke-width="1" /><line x1="360" y1="0" x2="360" y2="675" stroke="#ffffff" stroke-width="1" /><line x1="400" y1="0" x2="400" y2="675" stroke="#ffffff" stroke-width="1" /><line x1="440" y1="0" x2="440" y2="675" stroke="#ffffff" stroke-width="1" /><line x1="480" y1="0" x2="480" y2="675" stroke="#ffffff" stroke-width="1" /><line x1="520" y1="0" x2="520" y2="675" stroke="#ffffff" stroke-width="1" /><line x1="560" y1="0" x2="560" y2="675" stroke="#ffffff" stroke-width="1" /><line x1="600" y1="0" x2="600" y2="675" stroke="#ffffff" stroke-width="1" /><line x1="640" y1="0" x2="640" y2="675" stroke="#ffffff" stroke-width="1" /><line x1="680" y1="0" x2="680" y2="675" stroke="#ffffff" stroke-width="1" /><line x1="720" y1="0" x2="720" y2="675" stroke="#ffffff" stroke-width="1" /><line x1="760" y1="0" x2="760" y2="675" stroke="#ffffff" stroke-width="1" /><line x1="800" y1="0" x2="800" y2="675" stroke="#ffffff" stroke-width="1" /><line x1="840" y1="0" x2="840" y2="675" stroke="#ffffff" stroke-width="1" /><line x1="880" y1="0" x2="880" y2="675" stroke="#ffffff" stroke-width="1" /><line x1="920" y1="0" x2="920" y2="675" stroke="#ffffff" stroke-width="1" /><line x1="960" y1="0" x2="960" y2="675" stroke="#ffffff" stroke-width="1" /><line x1="1000" y1="0" x2="1000" y2="675" stroke="#ffffff" stroke-width="1" /><line x1="1040" y1="0" x2="1040" y2="675" stroke="#ffffff" stroke-width="1" /><line x1="1080" y1="0" x2="1080" y2="675" stroke="#ffffff" stroke-width="1" /><line x1="1120" y1="0" x2="1120" y2="675" stroke="#ffffff" stroke-width="1" /><line x1="1160" y1="0" x2="1160" y2="675" stroke="#ffffff" stroke-width="1" /><line x1="0" y1="0" x2="1200" y2="0" stroke="#ffffff" stroke-width="1" /><line x1="0" y1="40" x2="1200" y2="40" stroke="#ffffff" stroke-width="1" /><line x1="0" y1="80" x2="1200" y2="80" stroke="#ffffff" stroke-width="1" /><line x1="0" y1="120" x2="1200" y2="120" stroke="#ffffff" stroke-width="1" /><line x1="0" y1="160" x2="1200" y2="160" stroke="#ffffff" stroke-width="1" /><line x1="0" y1="200" x2="1200" y2="200" stroke="#ffffff" stroke-width="1" /><line x1="0" y1="240" x2="1200" y2="240" stroke="#ffffff" stroke-width="1" /><line x1="0" y1="280" x2="1200" y2="280" stroke="#ffffff" stroke-width="1" /><line x1="0" y1="320" x2="1200" y2="320" stroke="#ffffff" stroke-width="1" /><line x1="0" y1="360" x2="1200" y2="360" stroke="#ffffff" stroke-width="1" /><line x1="0" y1="400" x2="1200" y2="400" stroke="#ffffff" stroke-width="1" /><line x1="0" y1="440" x2="1200" y2="440" stroke="#ffffff" stroke-width="1" /><line x1="0" y1="480" x2="1200" y2="480" stroke="#ffffff" stroke-width="1" /><line x1="0" y1="520" x2="1200" y2="520" stroke="#ffffff" stroke-width="1" /><line x1="0" y1="560" x2="1200" y2="560" stroke="#ffffff" stroke-width="1" /><line x1="0" y1="600" x2="1200" y2="600" stroke="#ffffff" stroke-width="1" /><line x1="0" y1="640" x2="1200" y2="640" stroke="#ffffff" stroke-width="1" /></g><circle cx="600" cy="337" r="350" fill="#A855F7" opacity="0.12" filter="blur(80px)" /><circle cx="615" cy="295" r="250" fill="#06B6D4" opacity="0.08" filter="blur(60px)" /><path d="M 0 337 Q 300 215 600 337 T 1200 337" fill="none" stroke="#A855F7" stroke-width="3" opacity="0.25" /><path d="M 0 237 Q 400 415 800 237 T 1200 237" fill="none" stroke="#22D3EE" stroke-width="2" opacity="0.18" /><g opacity="0.3" stroke="#A855F7" stroke-width="1"><line x1="584.7477450191598" y1="511.3340721660555" x2="503.0380759507326" y2="511.9239414278792" /><line x1="584.7477450191598" y1="511.3340721660555" x2="420.3070102393591" y2="472.4083802092108" /><line x1="584.7477450191598" y1="511.3340721660555" x2="356.4074838036912" y2="393.2377635859663" /><line x1="584.7477450191598" y1="511.3340721660555" x2="818.2394752199995" y2="571.0331845181346" /><line x1="584.7477450191598" y1="511.3340721660555" x2="653.7187454854309" y2="493.01056497388726" /><line x1="503.0380759507326" y1="511.9239414278792" x2="420.3070102393591" y2="472.4083802092108" /><line x1="503.0380759507326" y1="511.9239414278792" x2="356.4074838036912" y2="393.2377635859663" /><line x1="503.0380759507326" y1="511.9239414278792" x2="653.7187454854309" y2="493.01056497388726" /><line x1="420.3070102393591" y1="472.4083802092108" x2="356.4074838036912" y2="393.2377635859663" /><line x1="420.3070102393591" y1="472.4083802092108" x2="330.0525245518924" y2="284.5275262714502" /><line x1="420.3070102393591" y1="472.4083802092108" x2="653.7187454854309" y2="493.01056497388726" /><line x1="356.4074838036912" y1="393.2377635859663" x2="330.0525245518924" y2="284.5275262714502" /><line x1="356.4074838036912" y1="393.2377635859663" x2="354.25438671330244" y2="164.92706909468615" /><line x1="330.0525245518924" y1="284.5275262714502" x2="354.25438671330244" y2="164.92706909468615" /><line x1="330.0525245518924" y1="284.5275262714502" x2="432.61262565423226" y2="58.420627271813544" /><line x1="354.25438671330244" y1="164.92706909468615" x2="432.61262565423226" y2="58.420627271813544" /><line x1="354.25438671330244" y1="164.92706909468615" x2="579.2822116211249" y2="168.26715422097524" /><line x1="432.61262565423226" y1="58.420627271813544" x2="579.2822116211249" y2="168.26715422097524" /><line x1="432.61262565423226" y1="58.420627271813544" x2="657.0124824209337" y2="150.52057258720808" /><line x1="579.2822116211249" y1="168.26715422097524" x2="657.0124824209337" y2="150.52057258720808" /><line x1="579.2822116211249" y1="168.26715422097524" x2="744.3329863779115" y2="170.96389235099014" /><line x1="579.2822116211249" y1="168.26715422097524" x2="822.0454078239792" y2="233.45852587352852" /><line x1="657.0124824209337" y1="150.52057258720808" x2="744.3329863779115" y2="170.96389235099014" /><line x1="657.0124824209337" y1="150.52057258720808" x2="822.0454078239792" y2="233.45852587352852" /><line x1="744.3329863779115" y1="170.96389235099014" x2="822.0454078239792" y2="233.45852587352852" /><line x1="744.3329863779115" y1="170.96389235099014" x2="869.9588776922257" y2="332.2878502619332" /><line x1="822.0454078239792" y1="233.45852587352852" x2="869.9588776922257" y2="332.2878502619332" /><line x1="822.0454078239792" y1="233.45852587352852" x2="871.54893176847" y2="452.2656829043357" /><line x1="869.9588776922257" y1="332.2878502619332" x2="871.54893176847" y2="452.2656829043357" /><line x1="869.9588776922257" y1="332.2878502619332" x2="818.2394752199995" y2="571.0331845181346" /><line x1="871.54893176847" y1="452.2656829043357" x2="818.2394752199995" y2="571.0331845181346" /><line x1="871.54893176847" y1="452.2656829043357" x2="653.7187454854309" y2="493.01056497388726" /><line x1="818.2394752199995" y1="571.0331845181346" x2="653.7187454854309" y2="493.01056497388726" /></g><circle cx="584.7477450191598" cy="511.3340721660555" r="9" fill="#0A0E1A" stroke="#A855F7" stroke-width="2" /><circle cx="584.7477450191598" cy="511.3340721660555" r="7" fill="#A855F7" /><circle cx="584.7477450191598" cy="511.3340721660555" r="15" fill="none" stroke="#A855F7" stroke-width="0.5" opacity="0.5" /><circle cx="503.0380759507326" cy="511.9239414278792" r="6" fill="#0A0E1A" stroke="#A855F7" stroke-width="2" /><circle cx="420.3070102393591" cy="472.4083802092108" r="11" fill="#0A0E1A" stroke="#A855F7" stroke-width="2" /><circle cx="356.4074838036912" cy="393.2377635859663" r="8" fill="#0A0E1A" stroke="#A855F7" stroke-width="2" /><circle cx="356.4074838036912" cy="393.2377635859663" r="6" fill="#A855F7" /><circle cx="356.4074838036912" cy="393.2377635859663" r="14" fill="none" stroke="#A855F7" stroke-width="0.5" opacity="0.5" /><circle cx="330.0525245518924" cy="284.5275262714502" r="5" fill="#0A0E1A" stroke="#A855F7" stroke-width="2" /><circle cx="354.25438671330244" cy="164.92706909468615" r="10" fill="#0A0E1A" stroke="#A855F7" stroke-width="2" /><circle cx="432.61262565423226" cy="58.420627271813544" r="7" fill="#0A0E1A" stroke="#A855F7" stroke-width="2" /><circle cx="432.61262565423226" cy="58.420627271813544" r="5" fill="#A855F7" /><circle cx="432.61262565423226" cy="58.420627271813544" r="13" fill="none" stroke="#A855F7" stroke-width="0.5" opacity="0.5" /><circle cx="579.2822116211249" cy="168.26715422097524" r="4" fill="#0A0E1A" stroke="#A855F7" stroke-width="2" /><circle cx="657.0124824209337" cy="150.52057258720808" r="9" fill="#0A0E1A" stroke="#A855F7" stroke-width="2" /><circle cx="744.3329863779115" cy="170.96389235099014" r="6" fill="#0A0E1A" stroke="#A855F7" stroke-width="2" /><circle cx="744.3329863779115" cy="170.96389235099014" r="4" fill="#A855F7" /><circle cx="744.3329863779115" cy="170.96389235099014" r="12" fill="none" stroke="#A855F7" stroke-width="0.5" opacity="0.5" /><circle cx="822.0454078239792" cy="233.45852587352852" r="11" fill="#0A0E1A" stroke="#A855F7" stroke-width="2" /><circle cx="869.9588776922257" cy="332.2878502619332" r="8" fill="#0A0E1A" stroke="#A855F7" stroke-width="2" /><circle cx="871.54893176847" cy="452.2656829043357" r="5" fill="#0A0E1A" stroke="#A855F7" stroke-width="2" /><circle cx="871.54893176847" cy="452.2656829043357" r="3" fill="#A855F7" /><circle cx="871.54893176847" cy="452.2656829043357" r="11" fill="none" stroke="#A855F7" stroke-width="0.5" opacity="0.5" /><circle cx="818.2394752199995" cy="571.0331845181346" r="10" fill="#0A0E1A" stroke="#A855F7" stroke-width="2" /><circle cx="653.7187454854309" cy="493.01056497388726" r="7" fill="#0A0E1A" stroke="#A855F7" stroke-width="2" /><circle cx="600" cy="337" r="15" fill="#A855F7" opacity="0.8" /><circle cx="600" cy="337" r="25" fill="none" stroke="#A855F7" stroke-width="1.5" opacity="0.5" /></svg>