
<svg xmlns="http://www.w3.org/2000/svg" viewBox="0 0 800 450" width="100%" height="100%">
  <rect width="800" height="450" fill="#0A0E1A" rx="12" />
  <circle cx="400" cy="225" r="150" fill="#10B981" opacity="0.08" filter="blur(50px)" />
  
  <!-- Flow Lines -->
  <g stroke="#10B981" stroke-width="2" fill="none">
    <!-- Tokenization call -->
    <path d="M 170 160 L 390 160 L 390 190" marker-end="url(#arrow-green)" />
    <!-- Backend verify -->
    <path d="M 390 270 L 390 320 L 250 320 L 250 200" marker-end="url(#arrow-green)" />
    <!-- Final Charge -->
    <path d="M 250 200 L 590 200 L 590 160 L 610 160" marker-end="url(#arrow-green)" />
  </g>
  
  <defs>
    <marker id="arrow-green" viewBox="0 0 10 10" refX="6" refY="5" markerWidth="6" markerHeight="6" orient="auto-start-reverse">
      <path d="M 0 1 L 10 5 L 0 9 z" fill="#10B981" />
    </marker>
  </defs>
  
  <!-- Component Boxes -->
  <g fill="#0F1629" stroke="#10B981" stroke-width="2">
    <!-- User Client UI -->
    <rect x="50" y="120" width="120" height="80" rx="6" />
    <!-- Payment Processor API (Stripe/Adyen) -->
    <rect x="310" y="190" width="160" height="80" rx="6" />
    <!-- Application Backend DB (No Card Data!) -->
    <rect x="170" y="320" width="160" height="80" rx="6" />
    <!-- double-entry Accounting Ledger -->
    <rect x="610" y="120" width="140" height="80" rx="6" />
  </g>
  
  <!-- Labels -->
  <g fill="#F1F5F9" font-family="monospace" font-size="11" text-anchor="middle">
    <text x="110" y="155" font-weight="bold">USER CLIENT</text>
    <text x="110" y="170">Browser UI</text>
    
    <text x="390" y="225" font-weight="bold">GATEWAY VAULT</text>
    <text x="390" y="240">Generates Token</text>
    
    <text x="250" y="355" font-weight="bold">APP BACKEND</text>
    <text x="250" y="370">Stores Token Only</text>
    
    <text x="680" y="155" font-weight="bold">LEDGER SYSTEM</text>
    <text x="680" y="170">Double-Entry DB</text>
  </g>
  
  <g fill="#94A3B8" font-family="monospace" font-size="10" text-anchor="middle">
    <text x="280" y="150">Submit Card Data</text>
    <text x="235" y="300">Return Token</text>
    <text x="520" y="190">Execute Charge</text>
  </g>
</svg>
