<svg xmlns="http://www.w3.org/2000/svg" viewBox="0 0 1200 675" width="100%" height="100%"><rect width="1200" height="675" fill="#0A0E1A" /><g opacity="0.07"><line x1="0" y1="0" x2="0" y2="675" stroke="#ffffff" stroke-width="1" /><line x1="40" y1="0" x2="40" y2="675" stroke="#ffffff" stroke-width="1" /><line x1="80" y1="0" x2="80" y2="675" stroke="#ffffff" stroke-width="1" /><line x1="120" y1="0" x2="120" y2="675" stroke="#ffffff" stroke-width="1" /><line x1="160" y1="0" x2="160" y2="675" stroke="#ffffff" stroke-width="1" /><line x1="200" y1="0" x2="200" y2="675" stroke="#ffffff" stroke-width="1" /><line x1="240" y1="0" x2="240" y2="675" stroke="#ffffff" stroke-width="1" /><line x1="280" y1="0" x2="280" y2="675" stroke="#ffffff" stroke-width="1" /><line x1="320" y1="0" x2="320" y2="675" stroke="#ffffff" stroke-width="1" /><line x1="360" y1="0" x2="360" y2="675" stroke="#ffffff" stroke-width="1" /><line x1="400" y1="0" x2="400" y2="675" stroke="#ffffff" stroke-width="1" /><line x1="440" y1="0" x2="440" y2="675" stroke="#ffffff" stroke-width="1" /><line x1="480" y1="0" x2="480" y2="675" stroke="#ffffff" stroke-width="1" /><line x1="520" y1="0" x2="520" y2="675" stroke="#ffffff" stroke-width="1" /><line x1="560" y1="0" x2="560" y2="675" stroke="#ffffff" stroke-width="1" /><line x1="600" y1="0" x2="600" y2="675" stroke="#ffffff" stroke-width="1" /><line x1="640" y1="0" x2="640" y2="675" stroke="#ffffff" stroke-width="1" /><line x1="680" y1="0" x2="680" y2="675" stroke="#ffffff" stroke-width="1" /><line x1="720" y1="0" x2="720" y2="675" stroke="#ffffff" stroke-width="1" /><line x1="760" y1="0" x2="760" y2="675" stroke="#ffffff" stroke-width="1" /><line x1="800" y1="0" x2="800" y2="675" stroke="#ffffff" stroke-width="1" /><line x1="840" y1="0" x2="840" y2="675" stroke="#ffffff" stroke-width="1" /><line x1="880" y1="0" x2="880" y2="675" stroke="#ffffff" stroke-width="1" /><line x1="920" y1="0" x2="920" y2="675" stroke="#ffffff" stroke-width="1" /><line x1="960" y1="0" x2="960" y2="675" stroke="#ffffff" stroke-width="1" /><line x1="1000" y1="0" x2="1000" y2="675" stroke="#ffffff" stroke-width="1" /><line x1="1040" y1="0" x2="1040" y2="675" stroke="#ffffff" stroke-width="1" /><line x1="1080" y1="0" x2="1080" y2="675" stroke="#ffffff" stroke-width="1" /><line x1="1120" y1="0" x2="1120" y2="675" stroke="#ffffff" stroke-width="1" /><line x1="1160" y1="0" x2="1160" y2="675" stroke="#ffffff" stroke-width="1" /><line x1="0" y1="0" x2="1200" y2="0" stroke="#ffffff" stroke-width="1" /><line x1="0" y1="40" x2="1200" y2="40" stroke="#ffffff" stroke-width="1" /><line x1="0" y1="80" x2="1200" y2="80" stroke="#ffffff" stroke-width="1" /><line x1="0" y1="120" x2="1200" y2="120" stroke="#ffffff" stroke-width="1" /><line x1="0" y1="160" x2="1200" y2="160" stroke="#ffffff" stroke-width="1" /><line x1="0" y1="200" x2="1200" y2="200" stroke="#ffffff" stroke-width="1" /><line x1="0" y1="240" x2="1200" y2="240" stroke="#ffffff" stroke-width="1" /><line x1="0" y1="280" x2="1200" y2="280" stroke="#ffffff" stroke-width="1" /><line x1="0" y1="320" x2="1200" y2="320" stroke="#ffffff" stroke-width="1" /><line x1="0" y1="360" x2="1200" y2="360" stroke="#ffffff" stroke-width="1" /><line x1="0" y1="400" x2="1200" y2="400" stroke="#ffffff" stroke-width="1" /><line x1="0" y1="440" x2="1200" y2="440" stroke="#ffffff" stroke-width="1" /><line x1="0" y1="480" x2="1200" y2="480" stroke="#ffffff" stroke-width="1" /><line x1="0" y1="520" x2="1200" y2="520" stroke="#ffffff" stroke-width="1" /><line x1="0" y1="560" x2="1200" y2="560" stroke="#ffffff" stroke-width="1" /><line x1="0" y1="600" x2="1200" y2="600" stroke="#ffffff" stroke-width="1" /><line x1="0" y1="640" x2="1200" y2="640" stroke="#ffffff" stroke-width="1" /></g><circle cx="600" cy="337" r="350" fill="#06B6D4" opacity="0.12" filter="blur(80px)" /><circle cx="535" cy="255" r="250" fill="#06B6D4" opacity="0.08" filter="blur(60px)" /><g opacity="0.2"><polygon points="745,290 800.9,322.5 800.9,387.5 745,420 689.1,387.5 689.1,322.5" fill="none" stroke="#06B6D4" stroke-width="2" /><line x1="745" y1="355" x2="745" y2="420" stroke="#06B6D4" stroke-width="1.5" /><line x1="745" y1="355" x2="800.9" y2="322.5" stroke="#06B6D4" stroke-width="1.5" /><line x1="745" y1="355" x2="689.1" y2="322.5" stroke="#06B6D4" stroke-width="1.5" /><polygon points="640,185 683,210 683,260 640,285 597,260 597,210" fill="none" stroke="#06B6D4" stroke-width="2" /><line x1="640" y1="235" x2="640" y2="285" stroke="#06B6D4" stroke-width="1.5" /><line x1="640" y1="235" x2="683" y2="210" stroke="#06B6D4" stroke-width="1.5" /><line x1="640" y1="235" x2="597" y2="210" stroke="#06B6D4" stroke-width="1.5" /><polygon points="535,355 565.1,372.5 565.1,407.5 535,425 504.9,407.5 504.9,372.5" fill="none" stroke="#06B6D4" stroke-width="2" /><line x1="535" y1="390" x2="535" y2="425" stroke="#06B6D4" stroke-width="1.5" /><line x1="535" y1="390" x2="565.1" y2="372.5" stroke="#06B6D4" stroke-width="1.5" /><line x1="535" y1="390" x2="504.9" y2="372.5" stroke="#06B6D4" stroke-width="1.5" /><polygon points="430,200 490.2,235 490.2,305 430,340 369.8,305 369.8,235" fill="none" stroke="#06B6D4" stroke-width="2" /><line x1="430" y1="270" x2="430" y2="340" stroke="#06B6D4" stroke-width="1.5" /><line x1="430" y1="270" x2="490.2" y2="235" stroke="#06B6D4" stroke-width="1.5" /><line x1="430" y1="270" x2="369.8" y2="235" stroke="#06B6D4" stroke-width="1.5" /><polygon points="825,370 872.3,397.5 872.3,452.5 825,480 777.7,452.5 777.7,397.5" fill="none" stroke="#06B6D4" stroke-width="2" /><line x1="825" y1="425" x2="825" y2="480" stroke="#06B6D4" stroke-width="1.5" /><line x1="825" y1="425" x2="872.3" y2="397.5" stroke="#06B6D4" stroke-width="1.5" /><line x1="825" y1="425" x2="777.7" y2="397.5" stroke="#06B6D4" stroke-width="1.5" /></g><g opacity="0.3" stroke="#06B6D4" stroke-width="1"><line x1="688.9043476344121" y1="463.96856686479373" x2="646.7794727556379" y2="490.0087609540857" /><line x1="688.9043476344121" y1="463.96856686479373" x2="597.1203529378482" y2="501.97486970080456" /><line x1="688.9043476344121" y1="463.96856686479373" x2="544.6534137422834" y2="497.7381578518839" /><line x1="688.9043476344121" y1="463.96856686479373" x2="494.6823709483916" y2="476.76121425827625" /><line x1="688.9043476344121" y1="463.96856686479373" x2="452.55263202798153" y2="440.24375854318833" /><line x1="688.9043476344121" y1="463.96856686479373" x2="824.7316176513133" y2="268.2926493901568" /><line x1="688.9043476344121" y1="463.96856686479373" x2="839.9634468375339" y2="341.1885775449479" /><line x1="688.9043476344121" y1="463.96856686479373" x2="831.6520510218327" y2="416.7641978420033" /><line x1="688.9043476344121" y1="463.96856686479373" x2="799.6588775118232" y2="487.453755788012" /><line x1="646.7794727556379" y1="490.0087609540857" x2="597.1203529378482" y2="501.97486970080456" /><line x1="646.7794727556379" y1="490.0087609540857" x2="544.6534137422834" y2="497.7381578518839" /><line x1="646.7794727556379" y1="490.0087609540857" x2="494.6823709483916" y2="476.76121425827625" /><line x1="646.7794727556379" y1="490.0087609540857" x2="452.55263202798153" y2="440.24375854318833" /><line x1="646.7794727556379" y1="490.0087609540857" x2="423.0836201468385" y2="391.08876537370634" /><line x1="646.7794727556379" y1="490.0087609540857" x2="839.9634468375339" y2="341.1885775449479" /><line x1="646.7794727556379" y1="490.0087609540857" x2="831.6520510218327" y2="416.7641978420033" /><line x1="646.7794727556379" y1="490.0087609540857" x2="799.6588775118232" y2="487.453755788012" /><line x1="597.1203529378482" y1="501.97486970080456" x2="544.6534137422834" y2="497.7381578518839" /><line x1="597.1203529378482" y1="501.97486970080456" x2="494.6823709483916" y2="476.76121425827625" /><line x1="597.1203529378482" y1="501.97486970080456" x2="452.55263202798153" y2="440.24375854318833" /><line x1="597.1203529378482" y1="501.97486970080456" x2="423.0836201468385" y2="391.08876537370634" /><line x1="597.1203529378482" y1="501.97486970080456" x2="410.02893792028567" y2="333.6840427769162" /><line x1="597.1203529378482" y1="501.97486970080456" x2="831.6520510218327" y2="416.7641978420033" /><line x1="597.1203529378482" y1="501.97486970080456" x2="799.6588775118232" y2="487.453755788012" /><line x1="544.6534137422834" y1="497.7381578518839" x2="494.6823709483916" y2="476.76121425827625" /><line x1="544.6534137422834" y1="497.7381578518839" x2="452.55263202798153" y2="440.24375854318833" /><line x1="544.6534137422834" y1="497.7381578518839" x2="423.0836201468385" y2="391.08876537370634" /><line x1="544.6534137422834" y1="497.7381578518839" x2="410.02893792028567" y2="333.6840427769162" /><line x1="544.6534137422834" y1="497.7381578518839" x2="415.6238777581332" y2="273.51420988085454" /><line x1="544.6534137422834" y1="497.7381578518839" x2="799.6588775118232" y2="487.453755788012" /><line x1="494.6823709483916" y1="476.76121425827625" x2="452.55263202798153" y2="440.24375854318833" /><line x1="494.6823709483916" y1="476.76121425827625" x2="423.0836201468385" y2="391.08876537370634" /><line x1="494.6823709483916" y1="476.76121425827625" x2="410.02893792028567" y2="333.6840427769162" /><line x1="494.6823709483916" y1="476.76121425827625" x2="415.6238777581332" y2="273.51420988085454" /><line x1="452.55263202798153" y1="440.24375854318833" x2="423.0836201468385" y2="391.08876537370634" /><line x1="452.55263202798153" y1="440.24375854318833" x2="410.02893792028567" y2="333.6840427769162" /><line x1="452.55263202798153" y1="440.24375854318833" x2="415.6238777581332" y2="273.51420988085454" /><line x1="452.55263202798153" y1="440.24375854318833" x2="440.2728979905414" y2="216.6369953695904" /><line x1="423.0836201468385" y1="391.08876537370634" x2="410.02893792028567" y2="333.6840427769162" /><line x1="423.0836201468385" y1="391.08876537370634" x2="415.6238777581332" y2="273.51420988085454" /><line x1="423.0836201468385" y1="391.08876537370634" x2="440.2728979905414" y2="216.6369953695904" /><line x1="423.0836201468385" y1="391.08876537370634" x2="482.4168305480355" y2="169.07383092075673" /><line x1="410.02893792028567" y1="333.6840427769162" x2="415.6238777581332" y2="273.51420988085454" /><line x1="410.02893792028567" y1="333.6840427769162" x2="440.2728979905414" y2="216.6369953695904" /><line x1="410.02893792028567" y1="333.6840427769162" x2="482.4168305480355" y2="169.07383092075673" /><line x1="410.02893792028567" y1="333.6840427769162" x2="538.6019420082254" y2="136.1760012477625" /><line x1="415.6238777581332" y1="273.51420988085454" x2="440.2728979905414" y2="216.6369953695904" /><line x1="415.6238777581332" y1="273.51420988085454" x2="482.4168305480355" y2="169.07383092075673" /><line x1="415.6238777581332" y1="273.51420988085454" x2="538.6019420082254" y2="136.1760012477625" /><line x1="415.6238777581332" y1="273.51420988085454" x2="603.7522673840159" y2="122.03274554137587" /><line x1="440.2728979905414" y1="216.6369953695904" x2="482.4168305480355" y2="169.07383092075673" /><line x1="440.2728979905414" y1="216.6369953695904" x2="538.6019420082254" y2="136.1760012477625" /><line x1="440.2728979905414" y1="216.6369953695904" x2="603.7522673840159" y2="122.03274554137587" /><line x1="440.2728979905414" y1="216.6369953695904" x2="671.6249939805743" y2="128.98591336815028" /><line x1="482.4168305480355" y1="169.07383092075673" x2="538.6019420082254" y2="136.1760012477625" /><line x1="482.4168305480355" y1="169.07383092075673" x2="603.7522673840159" y2="122.03274554137587" /><line x1="482.4168305480355" y1="169.07383092075673" x2="671.6249939805743" y2="128.98591336815028" /><line x1="482.4168305480355" y1="169.07383092075673" x2="735.4083802092108" y2="157.30701023935907" /><line x1="538.6019420082254" y1="136.1760012477625" x2="603.7522673840159" y2="122.03274554137587" /><line x1="538.6019420082254" y1="136.1760012477625" x2="671.6249939805743" y2="128.98591336815028" /><line x1="538.6019420082254" y1="136.1760012477625" x2="735.4083802092108" y2="157.30701023935907" /><line x1="538.6019420082254" y1="136.1760012477625" x2="788.4049701864681" y2="205.07741963925932" /><line x1="603.7522673840159" y1="122.03274554137587" x2="671.6249939805743" y2="128.98591336815028" /><line x1="603.7522673840159" y1="122.03274554137587" x2="735.4083802092108" y2="157.30701023935907" /><line x1="603.7522673840159" y1="122.03274554137587" x2="788.4049701864681" y2="205.07741963925932" /><line x1="671.6249939805743" y1="128.98591336815028" x2="735.4083802092108" y2="157.30701023935907" /><line x1="671.6249939805743" y1="128.98591336815028" x2="788.4049701864681" y2="205.07741963925932" /><line x1="671.6249939805743" y1="128.98591336815028" x2="824.7316176513133" y2="268.2926493901568" /><line x1="735.4083802092108" y1="157.30701023935907" x2="788.4049701864681" y2="205.07741963925932" /><line x1="735.4083802092108" y1="157.30701023935907" x2="824.7316176513133" y2="268.2926493901568" /><line x1="735.4083802092108" y1="157.30701023935907" x2="839.9634468375339" y2="341.1885775449479" /><line x1="788.4049701864681" y1="205.07741963925932" x2="824.7316176513133" y2="268.2926493901568" /><line x1="788.4049701864681" y1="205.07741963925932" x2="839.9634468375339" y2="341.1885775449479" /><line x1="788.4049701864681" y1="205.07741963925932" x2="831.6520510218327" y2="416.7641978420033" /><line x1="824.7316176513133" y1="268.2926493901568" x2="839.9634468375339" y2="341.1885775449479" /><line x1="824.7316176513133" y1="268.2926493901568" x2="831.6520510218327" y2="416.7641978420033" /><line x1="824.7316176513133" y1="268.2926493901568" x2="799.6588775118232" y2="487.453755788012" /><line x1="839.9634468375339" y1="341.1885775449479" x2="831.6520510218327" y2="416.7641978420033" /><line x1="839.9634468375339" y1="341.1885775449479" x2="799.6588775118232" y2="487.453755788012" /><line x1="831.6520510218327" y1="416.7641978420033" x2="799.6588775118232" y2="487.453755788012" /></g><circle cx="688.9043476344121" cy="463.96856686479373" r="9" fill="#0A0E1A" stroke="#06B6D4" stroke-width="2" /><circle cx="688.9043476344121" cy="463.96856686479373" r="7" fill="#06B6D4" /><circle cx="688.9043476344121" cy="463.96856686479373" r="15" fill="none" stroke="#06B6D4" stroke-width="0.5" opacity="0.5" /><circle cx="646.7794727556379" cy="490.0087609540857" r="6" fill="#0A0E1A" stroke="#06B6D4" stroke-width="2" /><circle cx="597.1203529378482" cy="501.97486970080456" r="11" fill="#0A0E1A" stroke="#06B6D4" stroke-width="2" /><circle cx="544.6534137422834" cy="497.7381578518839" r="8" fill="#0A0E1A" stroke="#06B6D4" stroke-width="2" /><circle cx="544.6534137422834" cy="497.7381578518839" r="6" fill="#06B6D4" /><circle cx="544.6534137422834" cy="497.7381578518839" r="14" fill="none" stroke="#06B6D4" stroke-width="0.5" opacity="0.5" /><circle cx="494.6823709483916" cy="476.76121425827625" r="5" fill="#0A0E1A" stroke="#06B6D4" stroke-width="2" /><circle cx="452.55263202798153" cy="440.24375854318833" r="10" fill="#0A0E1A" stroke="#06B6D4" stroke-width="2" /><circle cx="423.0836201468385" cy="391.08876537370634" r="7" fill="#0A0E1A" stroke="#06B6D4" stroke-width="2" /><circle cx="423.0836201468385" cy="391.08876537370634" r="5" fill="#06B6D4" /><circle cx="423.0836201468385" cy="391.08876537370634" r="13" fill="none" stroke="#06B6D4" stroke-width="0.5" opacity="0.5" /><circle cx="410.02893792028567" cy="333.6840427769162" r="4" fill="#0A0E1A" stroke="#06B6D4" stroke-width="2" /><circle cx="415.6238777581332" cy="273.51420988085454" r="9" fill="#0A0E1A" stroke="#06B6D4" stroke-width="2" /><circle cx="440.2728979905414" cy="216.6369953695904" r="6" fill="#0A0E1A" stroke="#06B6D4" stroke-width="2" /><circle cx="440.2728979905414" cy="216.6369953695904" r="4" fill="#06B6D4" /><circle cx="440.2728979905414" cy="216.6369953695904" r="12" fill="none" stroke="#06B6D4" stroke-width="0.5" opacity="0.5" /><circle cx="482.4168305480355" cy="169.07383092075673" r="11" fill="#0A0E1A" stroke="#06B6D4" stroke-width="2" /><circle cx="538.6019420082254" cy="136.1760012477625" r="8" fill="#0A0E1A" stroke="#06B6D4" stroke-width="2" /><circle cx="603.7522673840159" cy="122.03274554137587" r="5" fill="#0A0E1A" stroke="#06B6D4" stroke-width="2" /><circle cx="603.7522673840159" cy="122.03274554137587" r="3" fill="#06B6D4" /><circle cx="603.7522673840159" cy="122.03274554137587" r="11" fill="none" stroke="#06B6D4" stroke-width="0.5" opacity="0.5" /><circle cx="671.6249939805743" cy="128.98591336815028" r="10" fill="#0A0E1A" stroke="#06B6D4" stroke-width="2" /><circle cx="735.4083802092108" cy="157.30701023935907" r="7" fill="#0A0E1A" stroke="#06B6D4" stroke-width="2" /><circle cx="788.4049701864681" cy="205.07741963925932" r="4" fill="#0A0E1A" stroke="#06B6D4" stroke-width="2" /><circle cx="788.4049701864681" cy="205.07741963925932" r="2" fill="#06B6D4" /><circle cx="788.4049701864681" cy="205.07741963925932" r="10" fill="none" stroke="#06B6D4" stroke-width="0.5" opacity="0.5" /><circle cx="824.7316176513133" cy="268.2926493901568" r="9" fill="#0A0E1A" stroke="#06B6D4" stroke-width="2" /><circle cx="839.9634468375339" cy="341.1885775449479" r="6" fill="#0A0E1A" stroke="#06B6D4" stroke-width="2" /><circle cx="831.6520510218327" cy="416.7641978420033" r="11" fill="#0A0E1A" stroke="#06B6D4" stroke-width="2" /><circle cx="831.6520510218327" cy="416.7641978420033" r="9" fill="#06B6D4" /><circle cx="831.6520510218327" cy="416.7641978420033" r="17" fill="none" stroke="#06B6D4" stroke-width="0.5" opacity="0.5" /><circle cx="799.6588775118232" cy="487.453755788012" r="8" fill="#0A0E1A" stroke="#06B6D4" stroke-width="2" /><circle cx="600" cy="337" r="15" fill="#06B6D4" opacity="0.8" /><circle cx="600" cy="337" r="25" fill="none" stroke="#06B6D4" stroke-width="1.5" opacity="0.5" /></svg>