<svg xmlns="http://www.w3.org/2000/svg" viewBox="0 0 1200 675" width="100%" height="100%"><rect width="1200" height="675" fill="#0A0E1A" /><g opacity="0.07"><line x1="0" y1="0" x2="0" y2="675" stroke="#ffffff" stroke-width="1" /><line x1="40" y1="0" x2="40" y2="675" stroke="#ffffff" stroke-width="1" /><line x1="80" y1="0" x2="80" y2="675" stroke="#ffffff" stroke-width="1" /><line x1="120" y1="0" x2="120" y2="675" stroke="#ffffff" stroke-width="1" /><line x1="160" y1="0" x2="160" y2="675" stroke="#ffffff" stroke-width="1" /><line x1="200" y1="0" x2="200" y2="675" stroke="#ffffff" stroke-width="1" /><line x1="240" y1="0" x2="240" y2="675" stroke="#ffffff" stroke-width="1" /><line x1="280" y1="0" x2="280" y2="675" stroke="#ffffff" stroke-width="1" /><line x1="320" y1="0" x2="320" y2="675" stroke="#ffffff" stroke-width="1" /><line x1="360" y1="0" x2="360" y2="675" stroke="#ffffff" stroke-width="1" /><line x1="400" y1="0" x2="400" y2="675" stroke="#ffffff" stroke-width="1" /><line x1="440" y1="0" x2="440" y2="675" stroke="#ffffff" stroke-width="1" /><line x1="480" y1="0" x2="480" y2="675" stroke="#ffffff" stroke-width="1" /><line x1="520" y1="0" x2="520" y2="675" stroke="#ffffff" stroke-width="1" /><line x1="560" y1="0" x2="560" y2="675" stroke="#ffffff" stroke-width="1" /><line x1="600" y1="0" x2="600" y2="675" stroke="#ffffff" stroke-width="1" /><line x1="640" y1="0" x2="640" y2="675" stroke="#ffffff" stroke-width="1" /><line x1="680" y1="0" x2="680" y2="675" stroke="#ffffff" stroke-width="1" /><line x1="720" y1="0" x2="720" y2="675" stroke="#ffffff" stroke-width="1" /><line x1="760" y1="0" x2="760" y2="675" stroke="#ffffff" stroke-width="1" /><line x1="800" y1="0" x2="800" y2="675" stroke="#ffffff" stroke-width="1" /><line x1="840" y1="0" x2="840" y2="675" stroke="#ffffff" stroke-width="1" /><line x1="880" y1="0" x2="880" y2="675" stroke="#ffffff" stroke-width="1" /><line x1="920" y1="0" x2="920" y2="675" stroke="#ffffff" stroke-width="1" /><line x1="960" y1="0" x2="960" y2="675" stroke="#ffffff" stroke-width="1" /><line x1="1000" y1="0" x2="1000" y2="675" stroke="#ffffff" stroke-width="1" /><line x1="1040" y1="0" x2="1040" y2="675" stroke="#ffffff" stroke-width="1" /><line x1="1080" y1="0" x2="1080" y2="675" stroke="#ffffff" stroke-width="1" /><line x1="1120" y1="0" x2="1120" y2="675" stroke="#ffffff" stroke-width="1" /><line x1="1160" y1="0" x2="1160" y2="675" stroke="#ffffff" stroke-width="1" /><line x1="0" y1="0" x2="1200" y2="0" stroke="#ffffff" stroke-width="1" /><line x1="0" y1="40" x2="1200" y2="40" stroke="#ffffff" stroke-width="1" /><line x1="0" y1="80" x2="1200" y2="80" stroke="#ffffff" stroke-width="1" /><line x1="0" y1="120" x2="1200" y2="120" stroke="#ffffff" stroke-width="1" /><line x1="0" y1="160" x2="1200" y2="160" stroke="#ffffff" stroke-width="1" /><line x1="0" y1="200" x2="1200" y2="200" stroke="#ffffff" stroke-width="1" /><line x1="0" y1="240" x2="1200" y2="240" stroke="#ffffff" stroke-width="1" /><line x1="0" y1="280" x2="1200" y2="280" stroke="#ffffff" stroke-width="1" /><line x1="0" y1="320" x2="1200" y2="320" stroke="#ffffff" stroke-width="1" /><line x1="0" y1="360" x2="1200" y2="360" stroke="#ffffff" stroke-width="1" /><line x1="0" y1="400" x2="1200" y2="400" stroke="#ffffff" stroke-width="1" /><line x1="0" y1="440" x2="1200" y2="440" stroke="#ffffff" stroke-width="1" /><line x1="0" y1="480" x2="1200" y2="480" stroke="#ffffff" stroke-width="1" /><line x1="0" y1="520" x2="1200" y2="520" stroke="#ffffff" stroke-width="1" /><line x1="0" y1="560" x2="1200" y2="560" stroke="#ffffff" stroke-width="1" /><line x1="0" y1="600" x2="1200" y2="600" stroke="#ffffff" stroke-width="1" /><line x1="0" y1="640" x2="1200" y2="640" stroke="#ffffff" stroke-width="1" /></g><circle cx="600" cy="337" r="350" fill="#E11D48" opacity="0.12" filter="blur(80px)" /><circle cx="588" cy="348" r="250" fill="#06B6D4" opacity="0.08" filter="blur(60px)" /><g opacity="0.2"><polygon points="506,291 564.48,325 564.48,393 506,427 447.52,393 447.52,325" fill="none" stroke="#E11D48" stroke-width="2" /><line x1="506" y1="359" x2="506" y2="427" stroke="#E11D48" stroke-width="1.5" /><line x1="506" y1="359" x2="564.48" y2="325" stroke="#E11D48" stroke-width="1.5" /><line x1="506" y1="359" x2="447.52" y2="325" stroke="#E11D48" stroke-width="1.5" /><polygon points="662,187 710.16,215 710.16,271 662,299 613.84,271 613.84,215" fill="none" stroke="#E11D48" stroke-width="2" /><line x1="662" y1="243" x2="662" y2="299" stroke="#E11D48" stroke-width="1.5" /><line x1="662" y1="243" x2="710.16" y2="215" stroke="#E11D48" stroke-width="1.5" /><line x1="662" y1="243" x2="613.84" y2="215" stroke="#E11D48" stroke-width="1.5" /><polygon points="818,358 855.84,380 855.84,424 818,446 780.16,424 780.16,380" fill="none" stroke="#E11D48" stroke-width="2" /><line x1="818" y1="402" x2="818" y2="446" stroke="#E11D48" stroke-width="1.5" /><line x1="818" y1="402" x2="855.84" y2="380" stroke="#E11D48" stroke-width="1.5" /><line x1="818" y1="402" x2="780.16" y2="380" stroke="#E11D48" stroke-width="1.5" /><polygon points="474,254 501.52,270 501.52,302 474,318 446.48,302 446.48,270" fill="none" stroke="#E11D48" stroke-width="2" /><line x1="474" y1="286" x2="474" y2="318" stroke="#E11D48" stroke-width="1.5" /><line x1="474" y1="286" x2="501.52" y2="270" stroke="#E11D48" stroke-width="1.5" /><line x1="474" y1="286" x2="446.48" y2="270" stroke="#E11D48" stroke-width="1.5" /><polygon points="630,375 690.2,410 690.2,480 630,515 569.8,480 569.8,410" fill="none" stroke="#E11D48" stroke-width="2" /><line x1="630" y1="445" x2="630" y2="515" stroke="#E11D48" stroke-width="1.5" /><line x1="630" y1="445" x2="690.2" y2="410" stroke="#E11D48" stroke-width="1.5" /><line x1="630" y1="445" x2="569.8" y2="410" stroke="#E11D48" stroke-width="1.5" /></g><g opacity="0.3" stroke="#E11D48" stroke-width="1"><line x1="333.71289780688227" y1="503.39464896922635" x2="314.04793773088005" y2="420.8773991253744" /><line x1="333.71289780688227" y1="503.39464896922635" x2="318.02078513291366" y2="340.42379656836755" /><line x1="333.71289780688227" y1="503.39464896922635" x2="343.01156127404045" y2="268.34912701797793" /><line x1="333.71289780688227" y1="503.39464896922635" x2="566.6696323329879" y2="507.7778867159967" /><line x1="333.71289780688227" y1="503.39464896922635" x2="529.0183096361337" y2="478.15806612832375" /><line x1="333.71289780688227" y1="503.39464896922635" x2="383.0912476035815" y2="574.9802368555617" /><line x1="314.04793773088005" y1="420.8773991253744" x2="318.02078513291366" y2="340.42379656836755" /><line x1="314.04793773088005" y1="420.8773991253744" x2="343.01156127404045" y2="268.34912701797793" /><line x1="314.04793773088005" y1="420.8773991253744" x2="384.8338097461592" y2="209.70698930558677" /><line x1="314.04793773088005" y1="420.8773991253744" x2="529.0183096361337" y2="478.15806612832375" /><line x1="314.04793773088005" y1="420.8773991253744" x2="383.0912476035815" y2="574.9802368555617" /><line x1="318.02078513291366" y1="340.42379656836755" x2="343.01156127404045" y2="268.34912701797793" /><line x1="318.02078513291366" y1="340.42379656836755" x2="384.8338097461592" y2="209.70698930558677" /><line x1="318.02078513291366" y1="340.42379656836755" x2="438.2180150902271" y2="167.93613822388298" /><line x1="318.02078513291366" y1="340.42379656836755" x2="529.0183096361337" y2="478.15806612832375" /><line x1="318.02078513291366" y1="340.42379656836755" x2="383.0912476035815" y2="574.9802368555617" /><line x1="343.01156127404045" y1="268.34912701797793" x2="384.8338097461592" y2="209.70698930558677" /><line x1="343.01156127404045" y1="268.34912701797793" x2="438.2180150902271" y2="167.93613822388298" /><line x1="343.01156127404045" y1="268.34912701797793" x2="497.3631907976627" y2="144.67297278655036" /><line x1="343.01156127404045" y1="268.34912701797793" x2="556.5037042016168" y2="139.73856876768954" /><line x1="384.8338097461592" y1="209.70698930558677" x2="438.2180150902271" y2="167.93613822388298" /><line x1="384.8338097461592" y1="209.70698930558677" x2="497.3631907976627" y2="144.67297278655036" /><line x1="384.8338097461592" y1="209.70698930558677" x2="556.5037042016168" y2="139.73856876768954" /><line x1="384.8338097461592" y1="209.70698930558677" x2="610.4391690259441" y2="151.29317796578457" /><line x1="438.2180150902271" y1="167.93613822388298" x2="497.3631907976627" y2="144.67297278655036" /><line x1="438.2180150902271" y1="167.93613822388298" x2="556.5037042016168" y2="139.73856876768954" /><line x1="438.2180150902271" y1="167.93613822388298" x2="610.4391690259441" y2="151.29317796578457" /><line x1="438.2180150902271" y1="167.93613822388298" x2="654.9805201012874" y2="176.13626135952225" /><line x1="438.2180150902271" y1="167.93613822388298" x2="687.2747083845297" y2="210.11767153620133" /><line x1="497.3631907976627" y1="144.67297278655036" x2="556.5037042016168" y2="139.73856876768954" /><line x1="497.3631907976627" y1="144.67297278655036" x2="610.4391690259441" y2="151.29317796578457" /><line x1="497.3631907976627" y1="144.67297278655036" x2="654.9805201012874" y2="176.13626135952225" /><line x1="497.3631907976627" y1="144.67297278655036" x2="687.2747083845297" y2="210.11767153620133" /><line x1="556.5037042016168" y1="139.73856876768954" x2="610.4391690259441" y2="151.29317796578457" /><line x1="556.5037042016168" y1="139.73856876768954" x2="654.9805201012874" y2="176.13626135952225" /><line x1="556.5037042016168" y1="139.73856876768954" x2="687.2747083845297" y2="210.11767153620133" /><line x1="610.4391690259441" y1="151.29317796578457" x2="654.9805201012874" y2="176.13626135952225" /><line x1="610.4391690259441" y1="151.29317796578457" x2="687.2747083845297" y2="210.11767153620133" /><line x1="610.4391690259441" y1="151.29317796578457" x2="844.2214559754676" y2="133.33389962680903" /><line x1="654.9805201012874" y1="176.13626135952225" x2="687.2747083845297" y2="210.11767153620133" /><line x1="654.9805201012874" y1="176.13626135952225" x2="844.2214559754676" y2="133.33389962680903" /><line x1="654.9805201012874" y1="176.13626135952225" x2="875.516611600021" y2="213.32867457472938" /><line x1="654.9805201012874" y1="176.13626135952225" x2="882.8424771789429" y2="294.6191894452317" /><line x1="687.2747083845297" y1="210.11767153620133" x2="844.2214559754676" y2="133.33389962680903" /><line x1="687.2747083845297" y1="210.11767153620133" x2="875.516611600021" y2="213.32867457472938" /><line x1="687.2747083845297" y1="210.11767153620133" x2="882.8424771789429" y2="294.6191894452317" /><line x1="687.2747083845297" y1="210.11767153620133" x2="867.9118584406115" y2="370.51471478168656" /><line x1="844.2214559754676" y1="133.33389962680903" x2="875.516611600021" y2="213.32867457472938" /><line x1="844.2214559754676" y1="133.33389962680903" x2="882.8424771789429" y2="294.6191894452317" /><line x1="844.2214559754676" y1="133.33389962680903" x2="867.9118584406115" y2="370.51471478168656" /><line x1="875.516611600021" y1="213.32867457472938" x2="882.8424771789429" y2="294.6191894452317" /><line x1="875.516611600021" y1="213.32867457472938" x2="867.9118584406115" y2="370.51471478168656" /><line x1="875.516611600021" y1="213.32867457472938" x2="834.1831064017509" y2="435.3578805995036" /><line x1="882.8424771789429" y1="294.6191894452317" x2="867.9118584406115" y2="370.51471478168656" /><line x1="882.8424771789429" y1="294.6191894452317" x2="834.1831064017509" y2="435.3578805995036" /><line x1="882.8424771789429" y1="294.6191894452317" x2="786.4292632417311" y2="484.9463747685131" /><line x1="867.9118584406115" y1="370.51471478168656" x2="834.1831064017509" y2="435.3578805995036" /><line x1="867.9118584406115" y1="370.51471478168656" x2="786.4292632417311" y2="484.9463747685131" /><line x1="867.9118584406115" y1="370.51471478168656" x2="730.2155982444618" y2="516.7996050436066" /><line x1="867.9118584406115" y1="370.51471478168656" x2="671.3367771783155" y2="530.253885399004" /><line x1="834.1831064017509" y1="435.3578805995036" x2="786.4292632417311" y2="484.9463747685131" /><line x1="834.1831064017509" y1="435.3578805995036" x2="730.2155982444618" y2="516.7996050436066" /><line x1="834.1831064017509" y1="435.3578805995036" x2="671.3367771783155" y2="530.253885399004" /><line x1="834.1831064017509" y1="435.3578805995036" x2="615.2665384376245" y2="526.3856721194413" /><line x1="786.4292632417311" y1="484.9463747685131" x2="730.2155982444618" y2="516.7996050436066" /><line x1="786.4292632417311" y1="484.9463747685131" x2="671.3367771783155" y2="530.253885399004" /><line x1="786.4292632417311" y1="484.9463747685131" x2="615.2665384376245" y2="526.3856721194413" /><line x1="786.4292632417311" y1="484.9463747685131" x2="566.6696323329879" y2="507.7778867159967" /><line x1="786.4292632417311" y1="484.9463747685131" x2="529.0183096361337" y2="478.15806612832375" /><line x1="730.2155982444618" y1="516.7996050436066" x2="671.3367771783155" y2="530.253885399004" /><line x1="730.2155982444618" y1="516.7996050436066" x2="615.2665384376245" y2="526.3856721194413" /><line x1="730.2155982444618" y1="516.7996050436066" x2="566.6696323329879" y2="507.7778867159967" /><line x1="730.2155982444618" y1="516.7996050436066" x2="529.0183096361337" y2="478.15806612832375" /><line x1="671.3367771783155" y1="530.253885399004" x2="615.2665384376245" y2="526.3856721194413" /><line x1="671.3367771783155" y1="530.253885399004" x2="566.6696323329879" y2="507.7778867159967" /><line x1="671.3367771783155" y1="530.253885399004" x2="529.0183096361337" y2="478.15806612832375" /><line x1="615.2665384376245" y1="526.3856721194413" x2="566.6696323329879" y2="507.7778867159967" /><line x1="615.2665384376245" y1="526.3856721194413" x2="529.0183096361337" y2="478.15806612832375" /><line x1="615.2665384376245" y1="526.3856721194413" x2="383.0912476035815" y2="574.9802368555617" /><line x1="566.6696323329879" y1="507.7778867159967" x2="529.0183096361337" y2="478.15806612832375" /><line x1="566.6696323329879" y1="507.7778867159967" x2="383.0912476035815" y2="574.9802368555617" /><line x1="529.0183096361337" y1="478.15806612832375" x2="383.0912476035815" y2="574.9802368555617" /></g><circle cx="333.71289780688227" cy="503.39464896922635" r="8" fill="#0A0E1A" stroke="#E11D48" stroke-width="2" /><circle cx="333.71289780688227" cy="503.39464896922635" r="6" fill="#E11D48" /><circle cx="333.71289780688227" cy="503.39464896922635" r="14" fill="none" stroke="#E11D48" stroke-width="0.5" opacity="0.5" /><circle cx="314.04793773088005" cy="420.8773991253744" r="4" fill="#0A0E1A" stroke="#E11D48" stroke-width="2" /><circle cx="318.02078513291366" cy="340.42379656836755" r="8" fill="#0A0E1A" stroke="#E11D48" stroke-width="2" /><circle cx="343.01156127404045" cy="268.34912701797793" r="4" fill="#0A0E1A" stroke="#E11D48" stroke-width="2" /><circle cx="343.01156127404045" cy="268.34912701797793" r="2" fill="#E11D48" /><circle cx="343.01156127404045" cy="268.34912701797793" r="10" fill="none" stroke="#E11D48" stroke-width="0.5" opacity="0.5" /><circle cx="384.8338097461592" cy="209.70698930558677" r="8" fill="#0A0E1A" stroke="#E11D48" stroke-width="2" /><circle cx="438.2180150902271" cy="167.93613822388298" r="4" fill="#0A0E1A" stroke="#E11D48" stroke-width="2" /><circle cx="497.3631907976627" cy="144.67297278655036" r="8" fill="#0A0E1A" stroke="#E11D48" stroke-width="2" /><circle cx="497.3631907976627" cy="144.67297278655036" r="6" fill="#E11D48" /><circle cx="497.3631907976627" cy="144.67297278655036" r="14" fill="none" stroke="#E11D48" stroke-width="0.5" opacity="0.5" /><circle cx="556.5037042016168" cy="139.73856876768954" r="4" fill="#0A0E1A" stroke="#E11D48" stroke-width="2" /><circle cx="610.4391690259441" cy="151.29317796578457" r="8" fill="#0A0E1A" stroke="#E11D48" stroke-width="2" /><circle cx="654.9805201012874" cy="176.13626135952225" r="4" fill="#0A0E1A" stroke="#E11D48" stroke-width="2" /><circle cx="654.9805201012874" cy="176.13626135952225" r="2" fill="#E11D48" /><circle cx="654.9805201012874" cy="176.13626135952225" r="10" fill="none" stroke="#E11D48" stroke-width="0.5" opacity="0.5" /><circle cx="687.2747083845297" cy="210.11767153620133" r="8" fill="#0A0E1A" stroke="#E11D48" stroke-width="2" /><circle cx="844.2214559754676" cy="133.33389962680903" r="4" fill="#0A0E1A" stroke="#E11D48" stroke-width="2" /><circle cx="875.516611600021" cy="213.32867457472938" r="8" fill="#0A0E1A" stroke="#E11D48" stroke-width="2" /><circle cx="875.516611600021" cy="213.32867457472938" r="6" fill="#E11D48" /><circle cx="875.516611600021" cy="213.32867457472938" r="14" fill="none" stroke="#E11D48" stroke-width="0.5" opacity="0.5" /><circle cx="882.8424771789429" cy="294.6191894452317" r="4" fill="#0A0E1A" stroke="#E11D48" stroke-width="2" /><circle cx="867.9118584406115" cy="370.51471478168656" r="8" fill="#0A0E1A" stroke="#E11D48" stroke-width="2" /><circle cx="834.1831064017509" cy="435.3578805995036" r="4" fill="#0A0E1A" stroke="#E11D48" stroke-width="2" /><circle cx="834.1831064017509" cy="435.3578805995036" r="2" fill="#E11D48" /><circle cx="834.1831064017509" cy="435.3578805995036" r="10" fill="none" stroke="#E11D48" stroke-width="0.5" opacity="0.5" /><circle cx="786.4292632417311" cy="484.9463747685131" r="8" fill="#0A0E1A" stroke="#E11D48" stroke-width="2" /><circle cx="730.2155982444618" cy="516.7996050436066" r="4" fill="#0A0E1A" stroke="#E11D48" stroke-width="2" /><circle cx="671.3367771783155" cy="530.253885399004" r="8" fill="#0A0E1A" stroke="#E11D48" stroke-width="2" /><circle cx="671.3367771783155" cy="530.253885399004" r="6" fill="#E11D48" /><circle cx="671.3367771783155" cy="530.253885399004" r="14" fill="none" stroke="#E11D48" stroke-width="0.5" opacity="0.5" /><circle cx="615.2665384376245" cy="526.3856721194413" r="4" fill="#0A0E1A" stroke="#E11D48" stroke-width="2" /><circle cx="566.6696323329879" cy="507.7778867159967" r="8" fill="#0A0E1A" stroke="#E11D48" stroke-width="2" /><circle cx="529.0183096361337" cy="478.15806612832375" r="4" fill="#0A0E1A" stroke="#E11D48" stroke-width="2" /><circle cx="529.0183096361337" cy="478.15806612832375" r="2" fill="#E11D48" /><circle cx="529.0183096361337" cy="478.15806612832375" r="10" fill="none" stroke="#E11D48" stroke-width="0.5" opacity="0.5" /><circle cx="383.0912476035815" cy="574.9802368555617" r="8" fill="#0A0E1A" stroke="#E11D48" stroke-width="2" /><circle cx="600" cy="337" r="15" fill="#E11D48" opacity="0.8" /><circle cx="600" cy="337" r="25" fill="none" stroke="#E11D48" stroke-width="1.5" opacity="0.5" /></svg>